<mxfile host="app.diagrams.net" modified="2024-05-26T21:51:39.966Z" agent="Mozilla/5.0 (Windows NT 10.0; Win64; x64) AppleWebKit/537.36 (KHTML, like Gecko) Chrome/125.0.0.0 Safari/537.36" etag="6HGKX0_Xoeo8kwK6K2Pe" version="24.4.8" type="github">
  <diagram name="Page-1" id="V09ukMs0N7293hDHTdTk">
    <mxGraphModel dx="794" dy="454" grid="1" gridSize="10" guides="1" tooltips="1" connect="1" arrows="1" fold="1" page="1" pageScale="1" pageWidth="850" pageHeight="1100" math="0" shadow="0">
      <root>
        <mxCell id="0" />
        <mxCell id="1" parent="0" />
        <mxCell id="3GYJZX8lGVEuGiZ5cL6c-1" value="" style="rounded=0;whiteSpace=wrap;html=1;" vertex="1" parent="1">
          <mxGeometry x="100" y="30" width="600" height="560" as="geometry" />
        </mxCell>
        <mxCell id="3GYJZX8lGVEuGiZ5cL6c-3" value="" style="rounded=1;whiteSpace=wrap;html=1;fillColor=#eeeeee;strokeColor=#36393d;" vertex="1" parent="1">
          <mxGeometry x="220" y="130" width="360" height="370" as="geometry" />
        </mxCell>
        <mxCell id="3GYJZX8lGVEuGiZ5cL6c-4" value="Enter you email" style="text;html=1;align=center;verticalAlign=middle;whiteSpace=wrap;rounded=0;fillColor=#d5e8d4;strokeColor=#82b366;" vertex="1" parent="1">
          <mxGeometry x="320" y="250" width="160" height="30" as="geometry" />
        </mxCell>
        <mxCell id="3GYJZX8lGVEuGiZ5cL6c-5" value="Password" style="text;html=1;align=center;verticalAlign=middle;whiteSpace=wrap;rounded=0;fillColor=#d5e8d4;strokeColor=#82b366;" vertex="1" parent="1">
          <mxGeometry x="320" y="280" width="160" height="30" as="geometry" />
        </mxCell>
        <mxCell id="3GYJZX8lGVEuGiZ5cL6c-6" value="Re-type Password" style="text;html=1;align=center;verticalAlign=middle;whiteSpace=wrap;rounded=0;fillColor=#d5e8d4;strokeColor=#82b366;" vertex="1" parent="1">
          <mxGeometry x="320" y="310" width="160" height="30" as="geometry" />
        </mxCell>
        <mxCell id="3GYJZX8lGVEuGiZ5cL6c-7" value="Organisation" style="text;html=1;align=center;verticalAlign=middle;whiteSpace=wrap;rounded=0;fillColor=#d5e8d4;strokeColor=#82b366;" vertex="1" parent="1">
          <mxGeometry x="320" y="340" width="160" height="30" as="geometry" />
        </mxCell>
        <mxCell id="3GYJZX8lGVEuGiZ5cL6c-8" value="Role (i.e. teacher, student)" style="text;html=1;align=center;verticalAlign=middle;whiteSpace=wrap;rounded=0;fillColor=#d5e8d4;strokeColor=#82b366;" vertex="1" parent="1">
          <mxGeometry x="320" y="370" width="160" height="30" as="geometry" />
        </mxCell>
        <mxCell id="3GYJZX8lGVEuGiZ5cL6c-9" value="&lt;font style=&quot;font-size: 20px;&quot;&gt;Sign up&lt;/font&gt;" style="text;html=1;align=center;verticalAlign=middle;whiteSpace=wrap;rounded=0;fillColor=#dae8fc;strokeColor=#6c8ebf;" vertex="1" parent="1">
          <mxGeometry x="320" y="190" width="160" height="30" as="geometry" />
        </mxCell>
        <mxCell id="3GYJZX8lGVEuGiZ5cL6c-10" value="If any thingy is left" style="text;html=1;align=center;verticalAlign=middle;whiteSpace=wrap;rounded=0;fillColor=#d5e8d4;strokeColor=#82b366;" vertex="1" parent="1">
          <mxGeometry x="320" y="400" width="160" height="30" as="geometry" />
        </mxCell>
        <mxCell id="3GYJZX8lGVEuGiZ5cL6c-11" value="&lt;font style=&quot;font-size: 22px;&quot;&gt;X&lt;/font&gt;" style="text;html=1;align=center;verticalAlign=middle;whiteSpace=wrap;rounded=0;fillColor=#f8cecc;strokeColor=#b85450;" vertex="1" parent="1">
          <mxGeometry x="514" y="147" width="40" height="30" as="geometry" />
        </mxCell>
        <mxCell id="3GYJZX8lGVEuGiZ5cL6c-12" value="&lt;font style=&quot;font-size: 16px;&quot;&gt;Submit&lt;/font&gt;" style="text;html=1;align=center;verticalAlign=middle;whiteSpace=wrap;rounded=0;fillColor=#a20025;strokeColor=#6F0000;fontColor=#ffffff;" vertex="1" parent="1">
          <mxGeometry x="320" y="450" width="160" height="30" as="geometry" />
        </mxCell>
        <mxCell id="3GYJZX8lGVEuGiZ5cL6c-13" value="&lt;font style=&quot;font-size: 21px;&quot;&gt;Website&lt;/font&gt;" style="text;html=1;align=center;verticalAlign=middle;whiteSpace=wrap;rounded=0;" vertex="1" parent="1">
          <mxGeometry x="310" y="50" width="150" height="30" as="geometry" />
        </mxCell>
      </root>
    </mxGraphModel>
  </diagram>
</mxfile>
